# xmcd
#
# Track frame offsets:
#	150
#	30578
#	54807
#	91373
#	122934
#	139532
#	155775
#	194038
#	225855
#	247851
#
# Disc length: 3633 seconds
#
# Revision: 1
# Processed by: cddbd v1.5.1PL0 Copyright (c) Steve Scherf et al.
# Submitted via: audiograbber 1.83.01
#
DISCID=7a0e2f0a
DTITLE=Freddie King - Texas Cannonball - Live
DYEAR=1998
DGENRE=Blues
TTITLE0=Your Move
TTITLE1=Ain't gonna worry
TTITLE2=Bogie on down
TTITLE3=Meet me in the morning
TTITLE4=Living in a Palace of the King
TTITLE5=Please accept my Love
TTITLE6=Have you ever loved a Woman
TTITLE7=I'm tore down
TTITLE8=Hideaway
TTITLE9=Sweet Chicago
EXTD=
EXTT0=
EXTT1=
EXTT2=
EXTT3=
EXTT4=
EXTT5=
EXTT6=
EXTT7=
EXTT8=
EXTT9=
PLAYORDER=
